# xmcd
#
# Track frame offsets:
#	187
#	19292
#	39980
#	54957
#	74590
#	98005
#	113967
#	138542
#	160522
#	179455
#	192350
#	206105
#	224005
#	243042
#	257642
#
# Disc length: 3619 seconds
#
# Revision: 1
# Processed by: cddbd v1.4PL0 Copyright (c) Steve Scherf et al.
# Submitted via: audiograbber 1.81.03
#
DISCID=d90e210f
DTITLE=Lee Guiness - Lee Guiness Sings the Blues
DYEAR=1900
DGENRE=
TTITLE0=I've Got What It Takes
TTITLE1=Sugar Blues
TTITLE2=It's Tight Like That
TTITLE3=Backwater Blues
TTITLE4=There'll be Some Changes Made
TTITLE5=219 Blues
TTITLE6=World is Waiting for the Sunrise
TTITLE7=Muddy Water
TTITLE8=Lord, Lord You've Been Good to me
TTITLE9=Black Snake Blues
TTITLE10=There'll be a Hot Time in Old Town Tonight
TTITLE11=Precious memories
TTITLE12=In the Sweet Bye 'n Bye
TTITLE13=My Life will be Sweeter Someday
TTITLE14=Gimme a Pigfoot and a Bottle of Beer
EXTD=
EXTT0=
EXTT1=
EXTT2=
EXTT3=
EXTT4=
EXTT5=
EXTT6=
EXTT7=
EXTT8=
EXTT9=
EXTT10=
EXTT11=
EXTT12=
EXTT13=
EXTT14=
PLAYORDER=
